<?xml version="1.0" standalone="no"?>
<!DOCTYPE svg PUBLIC "-//W3C//DTD SVG 20010904//EN"
 "http://www.w3.org/TR/2001/REC-SVG-20010904/DTD/svg10.dtd">
<svg version="1.0" xmlns="http://www.w3.org/2000/svg"
 width="1561.000000pt" height="1043.000000pt" viewBox="0 0 1561.000000 1043.000000"
 preserveAspectRatio="xMidYMid meet">

<g transform="translate(0.000000,1043.000000) scale(0.100000,-0.100000)"
fill="#000000" stroke="none">
<path d="M0 7445 l0 -2985 1998 3 c1338 2 2007 6 2027 13 24 8 40 30 85 113
95 178 185 255 345 297 55 14 114 19 280 20 116 2 213 3 217 3 9 1 38 55 38
71 0 6 -29 10 -72 10 -93 0 -128 19 -148 81 -20 59 -17 406 15 1904 14 644 29
1415 35 1713 11 578 18 670 51 739 27 56 101 121 148 129 44 9 1429 -2 2056
-16 248 -5 707 -14 1020 -20 1225 -22 2352 -44 3190 -61 721 -14 757 -18 838
-97 74 -71 72 -62 70 -397 -1 -307 -5 -445 -48 -1575 -69 -1796 -102 -2463
-136 -2700 -24 -171 -59 -241 -132 -261 -43 -12 -605 -6 -727 7 l-55 6 -20
-43 -20 -44 -205 1 c-113 1 -349 9 -525 18 -176 9 -507 25 -735 36 -228 11
-545 27 -705 35 -159 9 -600 31 -980 50 -379 19 -818 41 -975 50 -157 8 -377
20 -490 25 -113 6 -326 17 -475 25 -148 8 -302 15 -341 15 l-70 0 -49 -67
c-27 -38 -60 -84 -74 -103 l-25 -35 30 27 c64 59 90 63 414 63 162 0 408 -6
545 -13 238 -12 868 -44 1520 -77 165 -8 381 -20 480 -25 99 -5 279 -15 400
-20 121 -6 339 -17 485 -25 146 -8 407 -21 580 -30 876 -44 1022 -59 1093
-115 59 -46 56 -92 -38 -565 -75 -386 -87 -420 -154 -454 -119 -61 -214 -59
-1706 29 -374 23 -786 47 -916 55 -130 8 -350 22 -490 30 -417 25 -715 43
-1064 65 -561 34 -813 49 -1005 61 -102 6 -275 17 -385 25 -110 8 -228 14
-262 14 l-61 0 -36 -57 c-20 -31 -34 -58 -32 -60 17 -18 417 -47 1641 -118
261 -15 314 -18 920 -55 182 -11 485 -29 675 -40 698 -40 711 -42 732 -67 6
-8 13 -33 14 -56 l2 -42 88 -7 c49 -3 168 -11 264 -18 526 -35 688 -93 774
-275 36 -74 55 -183 66 -377 6 -95 15 -211 20 -258 16 -143 13 -196 -12 -219
-12 -12 -38 -24 -57 -28 -52 -9 -660 22 -1096 57 -71 6 -265 19 -430 30 -472
31 -1041 69 -1265 85 -113 8 -277 19 -365 25 -88 5 -324 21 -525 35 -618 42
-1101 75 -1425 95 -170 11 -371 24 -445 30 -74 5 -274 19 -445 30 -170 11
-404 27 -520 35 -115 8 -244 18 -285 21 -109 7 -136 14 -160 36 -32 30 -22 81
29 156 40 60 208 272 546 693 99 123 383 476 630 784 247 308 484 595 526 637
123 125 232 166 469 177 l145 7 -170 8 c-93 5 -215 6 -269 3 -117 -7 -126 -13
-231 -127 -117 -129 -732 -871 -1306 -1576 -63 -77 -143 -176 -179 -219 -215
-264 -256 -315 -288 -363 -34 -50 -35 -54 -29 -120 8 -82 32 -165 52 -182 27
-22 241 -45 935 -100 140 -11 309 -25 375 -30 133 -11 694 -53 1340 -100 231
-17 542 -40 690 -51 473 -34 1223 -88 1450 -104 121 -8 378 -26 570 -40 193
-13 454 -32 580 -40 451 -30 923 -66 1083 -81 90 -9 165 -14 166 -13 2 2 -2
38 -10 79 -37 214 -50 506 -25 550 10 17 15 59 15 135 1 102 3 115 32 175 142
298 666 479 1324 457 198 -7 273 -21 373 -72 63 -32 83 -35 55 -6 -20 19 -14
322 10 571 12 118 31 325 43 460 25 296 35 340 95 397 102 99 300 117 1434
133 377 5 1021 10 1433 10 l747 0 0 2985 0 2985 -7805 0 -7805 0 0 -2985z"/>
<path d="M5014 9461 c-41 -25 -72 -66 -83 -110 -16 -63 -21 -190 -31 -796 -6
-324 -22 -1105 -35 -1735 -25 -1130 -30 -1671 -16 -1720 6 -24 11 -25 83 -28
l76 -3 6 53 c20 171 26 285 61 1223 9 230 33 1144 45 1685 24 1086 26 1131 48
1153 35 35 -2 35 1722 -3 239 -6 651 -15 915 -20 264 -6 687 -14 940 -20 253
-5 687 -14 965 -20 278 -6 853 -17 1278 -25 847 -17 825 -15 859 -77 16 -30
18 -58 16 -283 -1 -137 -15 -563 -32 -945 -42 -958 -67 -1561 -90 -2195 -30
-787 -29 -779 -40 -807 -14 -38 -56 -65 -119 -79 -68 -14 -511 -7 -962 16
-162 8 -448 21 -635 30 -187 8 -430 20 -540 25 -110 6 -346 17 -525 25 -179 8
-417 20 -530 25 -113 6 -545 26 -960 45 -1160 54 -1172 54 -1380 65 -209 11
-542 25 -810 36 l-165 6 -13 -45 c-8 -26 -28 -59 -48 -78 l-35 -34 -222 -1
c-236 -1 -290 -9 -385 -57 -68 -34 -146 -125 -197 -231 -24 -50 -52 -99 -62
-108 -52 -45 30 -43 -2100 -46 l-2013 -2 0 -2190 0 -2190 7805 0 7805 0 0
2190 0 2190 -707 0 c-852 -1 -2009 -16 -2298 -30 -426 -21 -542 -46 -580 -126
-11 -23 -24 -123 -40 -306 -13 -150 -33 -367 -44 -483 -25 -272 -34 -453 -24
-489 8 -26 20 -33 144 -75 74 -26 164 -63 200 -83 152 -85 292 -213 347 -316
54 -100 59 -165 26 -320 -6 -28 -4 -31 10 -26 10 4 25 -1 36 -11 16 -15 20
-31 20 -86 0 -101 -49 -368 -85 -460 -4 -12 3 -20 25 -29 54 -22 143 -84 197
-137 112 -109 166 -232 166 -378 0 -274 -159 -476 -431 -546 -91 -23 -334 -43
-414 -34 -32 4 -68 15 -81 25 l-24 19 -49 -50 c-69 -71 -184 -145 -262 -169
-149 -46 -426 -46 -663 0 -231 45 -393 130 -474 252 -16 23 -64 88 -106 143
-175 229 -290 456 -364 716 -15 52 -28 95 -29 96 -10 13 -543 57 -1311 108
-406 27 -1492 105 -2600 185 -148 11 -488 35 -755 55 -267 19 -568 42 -670 50
-102 8 -277 22 -390 30 -779 56 -1248 97 -1405 121 -104 16 -134 29 -160 67
-25 39 -55 176 -55 252 0 67 3 76 37 128 21 30 223 281 449 558 1216 1488
1400 1705 1482 1745 34 17 62 19 347 17 430 -3 515 -15 515 -74 0 -20 24 -23
350 -39 113 -5 426 -21 695 -35 524 -27 1781 -91 1955 -100 58 -3 193 -10 300
-15 107 -5 328 -17 490 -25 162 -8 468 -24 680 -35 483 -25 929 -42 940 -35 4
2 10 18 13 35 11 53 29 55 305 42 298 -15 501 -16 537 -2 89 34 108 301 210
2970 34 903 45 1259 48 1530 2 266 2 269 -77 315 -69 40 -92 41 -911 55 -755
13 -1473 26 -2465 45 -421 8 -1017 19 -1325 25 -308 6 -769 15 -1025 20 -256
5 -645 10 -865 10 -374 0 -402 -1 -431 -19z"/>
<path d="M5269 9123 l-37 -4 -6 -177 c-4 -97 -11 -388 -16 -647 -37 -1725 -85
-3040 -116 -3198 -4 -18 -1 -29 8 -31 7 -3 146 -10 308 -16 162 -6 385 -15
495 -20 110 -5 358 -16 550 -24 193 -9 386 -18 430 -21 44 -3 231 -12 415 -20
670 -30 788 -35 980 -45 107 -5 348 -17 535 -25 187 -8 428 -20 535 -25 1427
-72 2067 -97 2172 -86 114 13 104 -26 123 481 26 735 77 1974 131 3200 16 365
14 500 -9 521 -13 13 -124 16 -1152 34 -319 6 -785 15 -1035 20 -557 12 -1245
27 -1895 40 -269 5 -573 12 -675 15 -178 5 -949 21 -1460 29 -135 2 -261 2
-281 -1z"/>
<path d="M5062 4609 c-140 -18 -224 -62 -324 -168 -35 -36 -234 -280 -443
-540 -209 -260 -559 -697 -779 -970 -374 -466 -476 -598 -476 -618 0 -5 118
-16 263 -26 329 -22 1482 -100 2012 -137 77 -5 212 -14 300 -20 473 -31 766
-50 815 -55 30 -3 132 -10 225 -15 153 -9 485 -32 1110 -75 420 -29 512 -35
815 -55 168 -11 474 -31 680 -45 498 -32 642 -38 658 -27 12 8 11 39 -2 188
-8 99 -20 241 -26 316 -23 296 -91 385 -335 438 -123 26 -604 70 -773 70 -28
0 -30 -4 -97 -182 -124 -335 -205 -533 -227 -561 -43 -53 -34 -52 -728 -7
-168 11 -413 27 -545 35 -773 50 -1162 80 -1228 95 -20 4 -49 15 -62 24 -49
32 -40 55 150 376 34 58 98 168 143 246 45 77 93 151 108 165 32 30 16 30 619
-5 436 -25 605 -34 1015 -56 107 -6 272 -15 365 -20 451 -25 405 -25 405 -1 0
16 -6 21 -27 21 -15 0 -169 9 -342 20 -174 11 -548 33 -831 50 -283 17 -623
37 -755 45 -132 8 -359 22 -505 30 -802 47 -1321 82 -1409 96 -131 20 -150 56
-86 161 36 60 36 61 -7 72 -40 9 -52 38 -34 80 18 43 260 385 694 982 29 40
52 75 52 78 0 9 -313 5 -388 -5z"/>
<path d="M5594 4410 c-29 -4 -65 -16 -82 -25 -20 -12 -117 -150 -305 -434
l-276 -416 37 -3 c150 -10 1048 -65 1577 -97 138 -8 318 -19 400 -25 83 -6
229 -15 325 -20 173 -10 534 -32 825 -50 83 -5 384 -23 670 -40 286 -16 626
-37 755 -45 513 -32 654 -38 885 -39 260 -1 313 6 340 48 18 27 56 198 120
539 52 277 55 311 23 331 -51 31 -265 50 -973 86 -510 26 -1303 67 -1555 80
-107 6 -330 17 -495 25 -165 8 -428 22 -585 30 -157 8 -429 22 -605 30 -176 8
-410 20 -519 25 -224 11 -485 11 -562 0z"/>
<path d="M5132 4028 c-324 -451 -358 -504 -308 -485 18 7 515 747 501 747 -2
0 -89 -118 -193 -262z"/>
<path d="M6352 3001 c-6 -3 -39 -55 -74 -116 -36 -60 -122 -208 -193 -328 -70
-120 -126 -220 -124 -222 9 -8 182 -26 439 -45 257 -18 439 -30 1460 -95 217
-14 425 -25 462 -25 l68 0 24 48 c25 50 246 633 246 650 0 5 -58 12 -132 16
-73 4 -205 11 -293 16 -88 5 -248 14 -355 20 -107 5 -316 17 -465 25 -148 8
-355 19 -460 25 -193 10 -476 28 -552 34 -22 2 -46 1 -51 -3z"/>
<path d="M11100 2880 c-457 -36 -827 -194 -926 -395 -32 -67 -41 -160 -22
-225 13 -43 17 -46 98 -83 117 -52 147 -49 316 36 250 125 373 156 641 164
455 13 845 -81 1098 -266 38 -28 73 -51 77 -51 16 0 28 41 28 93 0 40 -8 69
-31 116 -56 112 -291 337 -494 473 -104 70 -175 104 -260 123 -77 18 -375 26
-525 15z"/>
<path d="M11926 2822 c5 -5 45 -36 89 -69 211 -159 381 -336 443 -462 32 -64
37 -84 36 -141 0 -107 -63 -193 -128 -176 -12 3 -59 32 -104 65 -200 144 -442
221 -795 250 -366 31 -586 -8 -867 -154 l-135 -69 -88 -1 -89 0 34 -28 c44
-38 202 -131 286 -169 235 -107 485 -158 775 -158 423 0 893 121 1050 269 92
87 142 209 135 330 -5 90 -36 150 -123 236 -117 117 -242 192 -434 256 -92 31
-100 33 -85 21z"/>
<path d="M10120 2036 c0 -85 22 -300 43 -414 l12 -67 50 -8 c28 -5 111 -19
185 -32 341 -61 510 -78 800 -78 264 -1 393 10 562 48 238 53 460 170 608 320
l65 67 -65 -36 c-87 -47 -306 -119 -460 -150 -200 -41 -346 -56 -548 -56 -326
0 -561 50 -819 175 -175 84 -262 142 -355 235 l-78 78 0 -82z"/>
<path d="M12563 1893 c-201 -286 -514 -460 -935 -520 -93 -13 -191 -17 -403
-17 -320 0 -463 13 -805 74 -118 21 -217 36 -219 34 -2 -2 12 -55 32 -117 72
-222 174 -423 297 -583 33 -43 83 -111 110 -150 27 -39 70 -90 96 -113 130
-115 400 -185 704 -183 258 1 359 38 501 182 96 98 196 240 228 324 31 84 43
179 36 286 -8 113 3 166 46 215 63 72 182 80 285 20 69 -40 153 -141 198 -235
38 -80 40 -90 40 -180 1 -77 -4 -104 -21 -142 -70 -153 -193 -203 -399 -163
l-94 19 -41 -40 c-81 -78 -82 -77 92 -71 185 6 238 17 346 68 181 86 270 239
261 444 -3 78 -8 101 -35 156 -54 108 -136 188 -267 257 l-39 21 -33 -29 c-43
-37 -67 -44 -109 -30 -78 26 -116 130 -60 166 23 15 94 17 144 3 10 -3 20 15
33 56 21 67 61 281 56 297 -2 5 -22 -16 -45 -49z"/>
<path d="M12440 1510 c0 -5 10 -10 23 -10 18 0 19 2 7 10 -19 13 -30 13 -30 0z"/>
<path d="M12320 1272 c-16 -17 -30 -41 -31 -54 0 -13 -2 -90 -3 -173 -4 -154
-11 -194 -52 -279 -13 -27 -24 -50 -24 -51 0 -1 23 0 51 3 31 3 82 -2 130 -13
90 -21 153 -13 217 27 77 47 108 200 64 315 -28 74 -98 168 -155 210 -41 30
-61 38 -108 41 -54 4 -60 2 -89 -26z"/>
</g>
</svg>
